<?xml version="1.0" encoding="UTF-8" standalone="no"?>
<!DOCTYPE svg PUBLIC "-//W3C//DTD SVG 1.1//EN"
 "http://www.w3.org/Graphics/SVG/1.1/DTD/svg11.dtd">
<!-- Generated by graphviz version 2.40.1 (20161225.0304)
 -->
<!-- Title: G Pages: 1 -->
<svg width="410pt" height="194pt"
 viewBox="0.00 0.00 409.77 194.00" xmlns="http://www.w3.org/2000/svg" xmlns:xlink="http://www.w3.org/1999/xlink">
<g id="graph0" class="graph" transform="scale(1 1) rotate(0) translate(4 190)">
<title>G</title>
<polygon fill="#ffffff" stroke="transparent" points="-4,4 -4,-190 405.7725,-190 405.7725,4 -4,4"/>
<!-- F2 -->
<g id="node1" class="node">
<title>F2</title>
<polygon fill="none" stroke="#9932cc" points="197.6642,-30.3008 161.6642,-30.3008 161.6642,-5.6992 197.6642,-5.6992 197.6642,-30.3008"/>
<text text-anchor="middle" x="179.6642" y="-13.8" font-family="Times,serif" font-size="14.00" fill="#000000">F</text>
</g>
<!-- S1 -->
<g id="node2" class="node">
<title>S1</title>
<ellipse fill="none" stroke="#0000ff" cx="281.307" cy="-66" rx="17.5658" ry="17.5658"/>
<ellipse fill="none" stroke="#0000ff" cx="281.307" cy="-66" rx="21.5726" ry="21.5726"/>
<text text-anchor="middle" x="281.307" y="-61.8" font-family="Times,serif" font-size="14.00" fill="#000000">S</text>
</g>
<!-- F2&#45;&gt;S1 -->
<g id="edge1" class="edge">
<title>F2&#45;&gt;S1</title>
<path fill="none" stroke="#000000" d="M197.7562,-25.5194C210.2297,-30.8019 227.1336,-38.1556 241.7708,-45.2 245.4398,-46.9658 249.2668,-48.8821 253.0325,-50.813"/>
<polygon fill="#000000" stroke="#000000" points="251.6576,-54.0433 262.1425,-55.5651 254.8951,-47.8369 251.6576,-54.0433"/>
<text text-anchor="middle" x="233.2175" y="-50.2" font-family="Times,serif" font-size="14.00" fill="#000000">w3</text>
</g>
<!-- eii -->
<g id="node7" class="node">
<title>eii</title>
<ellipse fill="none" stroke="#ff0000" cx="370.8079" cy="-66" rx="30.9292" ry="18"/>
<text text-anchor="start" x="356.3627" y="-62.8" font-family="Times,serif" font-size="14.00" fill="#000000">e</text>
<text text-anchor="start" x="362.5773" y="-62.8" font-family="Times,serif" baseline-shift="sub" font-size="14.00" fill="#000000">i</text>
<text text-anchor="start" x="366.4679" y="-62.8" font-family="Times,serif" baseline-shift="super" font-size="14.00" fill="#000000">t+1</text>
</g>
<!-- S1&#45;&gt;eii -->
<g id="edge6" class="edge">
<title>S1&#45;&gt;eii</title>
<path fill="none" stroke="#000000" d="M302.9727,-66C310.9414,-66 320.255,-66 329.383,-66"/>
<polygon fill="#000000" stroke="#000000" points="329.5284,-69.5001 339.5284,-66 329.5284,-62.5001 329.5284,-69.5001"/>
</g>
<!-- F1 -->
<g id="node3" class="node">
<title>F1</title>
<polygon fill="none" stroke="#9932cc" points="197.6642,-126.3008 161.6642,-126.3008 161.6642,-101.6992 197.6642,-101.6992 197.6642,-126.3008"/>
<text text-anchor="middle" x="179.6642" y="-109.8" font-family="Times,serif" font-size="14.00" fill="#000000">F</text>
</g>
<!-- F1&#45;&gt;S1 -->
<g id="edge4" class="edge">
<title>F1&#45;&gt;S1</title>
<path fill="none" stroke="#000000" d="M197.77,-106.5694C210.2496,-101.3407 227.1552,-94.0453 241.7708,-87 245.4464,-85.2282 249.2772,-83.2999 253.045,-81.3539"/>
<polygon fill="#000000" stroke="#000000" points="254.9372,-84.3132 262.1566,-76.5588 251.6772,-78.1186 254.9372,-84.3132"/>
<text text-anchor="middle" x="233.2175" y="-98.2" font-family="Times,serif" font-size="14.00" fill="#000000">w1</text>
</g>
<!-- ei -->
<g id="node4" class="node">
<title>ei</title>
<ellipse fill="none" stroke="#ff0000" cx="179.6642" cy="-66" rx="27" ry="18"/>
<text text-anchor="start" x="172.6663" y="-62.8" font-family="Times,serif" font-size="14.00" fill="#000000">e</text>
<text text-anchor="start" x="178.8809" y="-62.8" font-family="Times,serif" baseline-shift="sub" font-size="14.00" fill="#000000">i</text>
<text text-anchor="start" x="182.7715" y="-62.8" font-family="Times,serif" baseline-shift="super" font-size="14.00" fill="#000000">t</text>
</g>
<!-- ei&#45;&gt;S1 -->
<g id="edge5" class="edge">
<title>ei&#45;&gt;S1</title>
<path fill="none" stroke="#000000" d="M206.9026,-66C219.8947,-66 235.5289,-66 249.1056,-66"/>
<polygon fill="#000000" stroke="#000000" points="249.4631,-69.5001 259.4631,-66 249.4631,-62.5001 249.4631,-69.5001"/>
<text text-anchor="middle" x="233.2175" y="-70.2" font-family="Times,serif" font-size="14.00" fill="#000000">w2</text>
</g>
<!-- es1 -->
<g id="node5" class="node">
<title>es1</title>
<ellipse fill="none" stroke="#ffff00" cx="52.5018" cy="-18" rx="27" ry="18"/>
<text text-anchor="start" x="41.2269" y="-14.8" font-family="Times,serif" font-size="14.00" fill="#000000">e</text>
<text text-anchor="start" x="47.4415" y="-14.8" font-family="Times,serif" baseline-shift="sub" font-size="14.00" fill="#000000">s1</text>
<text text-anchor="start" x="59.8861" y="-14.8" font-family="Times,serif" baseline-shift="super" font-size="14.00" fill="#000000">t</text>
</g>
<!-- es1&#45;&gt;F2 -->
<g id="edge2" class="edge">
<title>es1&#45;&gt;F2</title>
<path fill="none" stroke="#000000" d="M79.7813,-18C100.8827,-18 130.0065,-18 151.3615,-18"/>
<polygon fill="#000000" stroke="#000000" points="151.4439,-21.5001 161.4439,-18 151.4438,-14.5001 151.4439,-21.5001"/>
<text text-anchor="middle" x="128.8339" y="-22.2" font-family="Times,serif" font-size="14.00" fill="#000000">r1</text>
</g>
<!-- es2 -->
<g id="node6" class="node">
<title>es2</title>
<ellipse fill="none" stroke="#ffff00" cx="52.5018" cy="-114" rx="27" ry="18"/>
<text text-anchor="start" x="41.2269" y="-110.8" font-family="Times,serif" font-size="14.00" fill="#000000">e</text>
<text text-anchor="start" x="47.4415" y="-110.8" font-family="Times,serif" baseline-shift="sub" font-size="14.00" fill="#000000">s2</text>
<text text-anchor="start" x="59.8861" y="-110.8" font-family="Times,serif" baseline-shift="super" font-size="14.00" fill="#000000">t</text>
</g>
<!-- es2&#45;&gt;F1 -->
<g id="edge3" class="edge">
<title>es2&#45;&gt;F1</title>
<path fill="none" stroke="#000000" d="M79.7813,-114C100.8827,-114 130.0065,-114 151.3615,-114"/>
<polygon fill="#000000" stroke="#000000" points="151.4439,-117.5001 161.4439,-114 151.4438,-110.5001 151.4439,-117.5001"/>
<text text-anchor="middle" x="128.8339" y="-118.2" font-family="Times,serif" font-size="14.00" fill="#000000">r2</text>
</g>
<!-- l0 -->
<g id="node8" class="node">
<title>l0</title>
<text text-anchor="middle" x="52.5018" y="-163.8" font-family="Times,serif" font-size="14.00" fill="#000000">w1+w2+w3 = 1</text>
</g>
</g>
</svg>
